<svg width="618" height="618" viewBox="0 0 618 618" fill="none" xmlns="http://www.w3.org/2000/svg">
<path d="M461.557 153.756C459.038 146.767 456.234 139.827 453.163 133.08C447.046 119.653 445.641 106.928 437.047 95.6997" stroke="#CCDDE2" stroke-width="4"/>
<path d="M417.13 82.8297C409.735 75.3076 402.819 67.2223 390.252 61.1841C363.695 48.4656 329.736 47.1756 286.391 65.1631" stroke="#CCDDE2" stroke-width="4"/>
<path d="M104.159 575.772C62.1577 516.401 48.5732 449.278 55.5926 380.629" stroke="#CCDDE2" stroke-width="4"/>
<path d="M485.188 283.497V284.229C484.776 297.553 497.089 352.788 532.01 370.333C566.931 387.879 591.829 464.892 513.096 495.107C434.363 525.323 438.651 575.772 438.651 575.772" stroke="#CCDDE2" stroke-width="4"/>
<path d="M286.384 122.19V56.9385C286.361 47.606 278.801 40.0463 269.469 40.0229H53.3765C44.0439 40.0463 36.4842 47.606 36.4609 56.9385V363.756C36.4776 373.085 44.0471 380.638 53.3765 380.635H269.469C271.565 380.648 273.644 380.249 275.586 379.46" stroke="#333333" stroke-width="4" stroke-linecap="round" stroke-linejoin="round"/>
<rect x="44.0469" y="50.3613" width="234.746" height="319.966" rx="24.95" fill="#00BFFF"/>
<rect x="57.8672" y="75.1196" width="209.673" height="59.9099" rx="12.48" fill="#00BFFF"/>
<circle cx="161.422" cy="94.1552" r="6.1957" fill="#D7E8F0"/>
<path d="M144.109 122.19C144.109 112.627 151.862 104.875 161.425 104.875C170.988 104.875 178.74 112.627 178.74 122.19H144.109Z" fill="#D7E8F0"/>
<path fill-rule="evenodd" clip-rule="evenodd" d="M162.682 199.222C149.174 199.214 136.992 207.347 131.819 219.825C126.647 232.303 129.502 246.669 139.054 256.22C148.605 265.772 162.971 268.627 175.449 263.454C187.927 258.282 196.06 246.1 196.052 232.592C196.042 214.166 181.108 199.232 162.682 199.222ZM162.682 257.914C159.991 257.914 157.809 255.733 157.809 253.042C157.809 250.351 159.991 248.17 162.682 248.17C165.372 248.17 167.554 250.351 167.554 253.042C167.554 255.733 165.372 257.914 162.682 257.914ZM168.425 223.461C168.571 222.423 168.717 221.39 168.865 220.365V220.389C168.934 219.845 169.027 219.277 169.122 218.696C169.659 215.429 170.262 211.756 166.915 209.832C163.741 208.034 158.248 208.458 156.316 211.892C154.58 214.91 155.615 219.48 156.464 223.224C156.701 224.273 156.924 225.257 157.067 226.124C157.875 231.572 159.044 236.96 160.568 242.252C161.113 243.924 164.286 243.924 164.807 242.252C166.632 236.218 167.542 229.746 168.425 223.461Z" fill="#D7E8F0"/>
<path d="M78.8359 161.775H241.868" stroke="white" stroke-width="7.24"/>
<path d="M78.8359 177.818H241.868" stroke="white" stroke-width="7.24"/>
<path d="M78.8359 281.159H241.868" stroke="white" stroke-width="7.24"/>
<path d="M116.703 296.336H203.994" stroke="white" stroke-width="7.24"/>
<path d="M96.1562 395.728C96.1562 395.728 125.166 280.45 215.522 252.294L252.248 243.53C252.248 243.53 258.056 217.591 255.918 214.865C253.78 212.14 249.389 206.556 241.346 207.767C233.303 208.979 212.512 209.366 207.188 183.947C201.865 158.529 221.536 98.1101 272.658 89.0739C323.78 80.0378 324.973 117.575 324.973 117.575L287.423 204.588L293.25 274.781L293.982 379.345L96.1562 395.728Z" fill="white"/>
<mask id="mask0_1505_87325" style="mask-type:luminance" maskUnits="userSpaceOnUse" x="73" y="85" width="392" height="493">
<path fill-rule="evenodd" clip-rule="evenodd" d="M73.4688 85.8882H464.658V577.977H73.4688L73.4688 85.8882Z" fill="white"/>
</mask>
<g mask="url(#mask0_1505_87325)">
<path d="M408.401 306.674C407.795 306.85 400.067 309.096 397.027 314.45C395.845 311.949 393.326 310.354 390.559 310.356H299.804C296.478 310.351 293.591 312.645 292.845 315.886L274.973 392.517C273.761 392.281 272.55 392.136 271.29 392.015L229.113 381.489C225.364 380.548 221.515 382.612 220.223 386.255C219.942 387.044 219.802 387.876 219.811 388.714C219.811 392.661 222.863 395.935 226.8 396.212L246.744 397.496C227.533 406.538 204.161 423.762 184.653 439.588C165.673 409.869 183.485 380.156 196.881 364.155C195.155 346.519 186.41 305.572 142.773 306.686C157.805 287.408 176.55 270.887 199.776 259.828C279.333 348.009 370.349 275.913 372.281 274.363C385.892 283.242 398.071 294.141 408.401 306.686" fill="#555555"/>
<path d="M400.131 559.638V574.876H137.398V553.291C147.634 553.896 158.402 551.474 168.195 547.059C180.593 541.414 191.3 532.644 200.458 522.639C209.875 512.283 215.048 497.923 221.049 485.435C230.061 466.63 241.999 453.233 260.943 447.558L259.732 452.767C259.239 454.891 259.741 457.123 261.096 458.832C262.451 460.54 264.51 461.538 266.69 461.542H357.9C356.083 477.289 348.422 563.29 400.131 559.656" fill="#555555"/>
<path d="M357.943 158.88C357.87 167.027 356.808 175.135 354.782 183.027C352.893 190.668 346.704 196.495 338.963 197.919C338.811 192.42 336.473 187.593 332.906 184.595C333.232 179.939 333.185 175.265 332.767 170.617C332.531 167.546 332.161 164.682 331.774 162.108C331.543 160.643 331.209 159.196 330.774 157.777C329.557 156.469 328.123 155.381 326.535 154.561C320.921 151.4 309.365 148.039 287.956 152.981C284.46 153.781 281.171 155.306 278.302 157.456C278.238 157.496 278.181 157.545 278.132 157.602C276.2 159.382 273.741 161.635 271.198 162.804C268.563 164.015 265.813 164.064 263.506 161.199C263.445 161.139 263.415 161.084 263.361 161.024C262.149 159.443 260.993 157.39 258.855 156.984C254.349 156.136 252.156 160.618 251.587 164.385C251.09 167.867 252.114 170.938 253.61 173.863C254.862 176.241 256.5 178.396 258.455 180.241C258.957 180.726 259.417 181.253 259.83 181.815C259.642 181.848 259.457 181.899 259.279 181.967C258.864 182.106 258.46 182.272 258.067 182.463C252.617 184.916 248.734 191.063 248.65 198.258C248.65 198.482 239.51 198.349 238.354 198.258C233.896 197.847 229.505 196.563 226.368 193.201C217.465 183.662 217.508 169.509 221.166 158.438C224.63 147.93 229.039 137.67 234.817 128.216C247.335 107.758 266.758 92.665 291.347 91.3084C297.244 91.0119 303.155 91.3571 308.977 92.338C311.732 92.7721 314.457 93.3789 317.135 94.1549C342.203 105.093 358.113 129.888 357.968 158.88" fill="#555555"/>
<path d="M343.424 392.112C340.462 399.713 333.412 404.061 327.677 401.802C321.942 399.543 319.689 391.597 322.644 383.996C325.6 376.395 332.655 372.041 338.391 374.306C344.126 376.571 346.385 384.517 343.424 392.118" fill="#00BFFF"/>
<path d="M358.659 459.992C358.659 459.992 342.573 572.126 406.916 559.699C470.908 547.325 495.127 286.991 309.898 249.55" stroke="#333333" stroke-width="7.24"/>
<path d="M208.014 352.037C208.014 352.037 156.098 395.818 184.073 439.606" stroke="#333333" stroke-width="7.24"/>
<path d="M359.828 428.844C358.938 428.898 357.666 428.305 356.8 428.069C355.701 427.778 354.613 427.467 353.535 427.136C347.21 425.168 341.259 422.154 335.929 418.221C334.718 417.355 332.562 416.798 331.084 417.367C329.409 417.982 328.202 419.46 327.935 421.225C327.481 424.35 329.685 427.408 332.09 429.413C334.942 431.799 337.904 433.998 341.362 435.427C344.7 436.767 348.144 437.827 351.658 438.595C353.251 438.964 354.868 439.2 356.448 439.606" stroke="#333333" stroke-width="7.24"/>
<path d="M379.751 398.507C380.406 401.959 380.884 405.545 380.557 409.052C380.284 412.019 379.218 415.483 375.918 416.204C375.29 416.37 374.639 416.429 373.992 416.38C361.564 415.647 351.323 411.353 339.628 402.898C327.933 394.443 323.815 413.915 334.498 417.367" stroke="#333333" stroke-width="7.24"/>
<path d="M334.949 431.763C334.662 431.527 334.389 431.274 334.132 431.006C328.311 424.92 327.258 437.147 333.368 440.745L334.156 441.211C334.568 441.387 335.01 441.593 335.446 441.817C335.652 441.871 335.882 441.962 336.094 442.023C341.617 444.445 347.498 445.996 353.288 447.577C347.559 445.705 341.847 443.864 336.094 442.023C335.597 441.817 335.125 441.611 334.628 441.375C334.476 441.311 334.318 441.262 334.156 441.229C333.946 441.134 333.702 441.157 333.514 441.29C333.376 441.403 333.274 441.555 333.223 441.726C332.284 443.979 333.047 446.82 334.247 448.836C335.506 450.968 337.668 452.609 339.8 453.778C345.536 456.994 352.204 458.896 358.642 460.035C359.836 460.282 361.059 460.361 362.276 460.271" stroke="#333333" stroke-width="7.24"/>
<path d="M414.206 474.146C414.206 474.146 394.469 440.508 392.27 411.262C390.926 393.16 385.608 389.326 381.805 389.065" stroke="#333333" stroke-width="7.24"/>
<path d="M375.925 416.198L379.765 398.508L381.812 389.06L396.989 319.011C397.445 316.899 396.921 314.693 395.564 313.011C394.206 311.329 392.161 310.351 390 310.351H299.239C295.914 310.347 293.028 312.641 292.28 315.88L274.408 392.518L261.362 448.437L260.151 453.675C259.663 455.799 260.168 458.03 261.523 459.736C262.878 461.443 264.937 462.44 267.116 462.445H358.319" stroke="#333333" stroke-width="7.24"/>
<path d="M263.391 159.183C263.391 159.183 268.193 138.815 295.314 136.114C322.434 133.413 329.23 153.678 329.23 153.678L328.376 155.719C328.376 155.719 292.722 141.413 273.032 161.83C273.032 161.83 265.94 165.046 263.391 159.195" fill="#00BFFF"/>
<path d="M270.711 392.015L228.528 381.477C225.784 380.798 222.892 381.724 221.054 383.872C219.216 386.019 218.746 389.019 219.841 391.625C220.935 394.232 223.406 395.997 226.227 396.188L246.17 397.502" stroke="#333333" stroke-width="7.24"/>
<path d="M371.732 274.333C371.732 274.333 279.596 348.972 199.203 259.828" stroke="#333333" stroke-width="7.24"/>
<path d="M196.31 364.144C194.584 346.507 185.845 305.53 142.172 306.674" stroke="#333333" stroke-width="7.24"/>
<path d="M407.847 306.662C407.847 306.662 399.616 308.927 396.461 314.463" stroke="#333333" stroke-width="7.24"/>
<path d="M73.4766 575.784H464.665" stroke="#333333" stroke-width="7.24"/>
<path d="M332.904 184.62C336.592 187.721 338.96 192.784 338.96 198.513C338.96 208.022 332.353 215.713 324.189 215.713C323.265 215.708 322.345 215.601 321.445 215.392C330.954 208.125 332.88 184.62 332.88 184.62" fill="#00BFFF"/>
<path d="M279.113 222.999C288.384 227.613 299.19 228.03 308.789 224.144C335.546 212.97 334.523 180.035 331.743 162.132C331.521 160.68 331.206 159.244 330.798 157.832C327.727 147.597 319.715 139.257 309.159 136.889C288.712 132.268 270.016 143.86 262.258 159.467" stroke="#333333" stroke-width="7.24"/>
<path d="M331.05 158.153C331.05 158.153 330.966 158.032 330.79 157.832C328.973 155.785 318.453 146.016 288.001 153.036C284.507 153.834 281.22 155.359 278.354 157.511C278.286 157.55 278.225 157.599 278.172 157.657" stroke="#333333" stroke-width="7.24"/>
<path d="M249.885 207.767H234.822C223.951 207.767 215.333 197.81 211.584 188.465C206.315 175.323 209.688 161.872 214.43 149.099C218.403 138.409 223.454 128.023 230.098 118.726C244.973 97.9222 267.43 86.1365 293.242 88.3168C295.532 88.5106 297.811 88.7932 300.08 89.1647C334.741 94.785 358.112 123.765 357.937 158.862C357.864 167.015 356.803 175.129 354.775 183.027C352.872 190.662 346.687 196.483 338.95 197.919" stroke="#333333" stroke-width="7.24"/>
<path d="M259.838 181.816C259.423 181.252 258.964 180.724 258.463 180.235C256.507 178.394 254.87 176.241 253.618 173.864C252.122 170.938 251.099 167.868 251.595 164.385C252.153 160.642 254.345 156.136 258.863 156.984C261.001 157.396 262.14 159.443 263.369 161.024C268.045 167.08 274.483 160.994 278.431 157.336" stroke="#333333" stroke-width="7.24"/>
<path d="M332.896 184.62C336.585 187.721 338.953 192.784 338.953 198.513C338.953 208.022 332.345 215.713 324.181 215.713C323.257 215.708 322.337 215.601 321.438 215.392" stroke="#333333" stroke-width="7.24"/>
<path d="M301.289 196.29C304.596 198.513 312.584 200.336 310.979 193.747C309.053 185.94 306.461 169.261 322.335 167.989C322.335 167.989 329.324 168.286 332.776 170.66" stroke="#333333" stroke-width="7.24"/>
<path d="M307.268 209.342C307.268 209.342 299.273 213.581 295.312 205.133" stroke="#333333" stroke-width="7.24"/>
<path d="M291.062 179.393C290.753 182.076 291.801 184.395 293.406 184.583C295.011 184.771 296.561 182.766 296.876 180.065C297.191 177.364 296.131 175.069 294.532 174.881C292.933 174.693 291.371 176.698 291.062 179.393Z" fill="#333333"/>
<path d="M317.093 180.974C316.784 183.651 317.832 185.976 319.437 186.164C321.042 186.352 322.592 184.347 322.901 181.646C323.21 178.945 322.162 176.643 320.563 176.462C318.964 176.28 317.402 178.279 317.093 180.974Z" fill="#333333"/>
<path d="M301.288 169.703C301.288 169.703 296.394 162.156 285.305 169.315" stroke="#333333" stroke-width="7.24"/>
<path d="M309.889 223.647V265.509" stroke="#333333" stroke-width="7.24"/>
<path d="M144.391 474.146C144.391 474.146 161.645 457.794 184.054 439.624C203.562 423.799 226.958 406.544 246.174 397.508C248.633 396.363 251.02 395.34 253.339 394.48C258.874 392.37 264.814 391.542 270.715 392.057C271.95 392.159 273.179 392.325 274.397 392.554" stroke="#333333" stroke-width="7.24"/>
<path d="M261.354 448.436C242.404 454.111 230.467 467.508 221.461 486.313C215.471 498.801 210.287 513.161 200.869 523.517C191.718 533.517 181.01 542.292 168.613 547.937C146.119 558.172 118.423 557.385 103.809 535.128C93.9252 520.035 90.0369 501.284 88.0626 483.648C84.671 452.997 95.3787 366.596 142.17 306.668C157.202 287.391 175.953 270.869 199.173 259.81C215.471 252.07 233.895 247.006 254.777 245.571L260.628 215.392" stroke="#333333" stroke-width="7.24"/>
<path d="M400.545 560.655V575.784" stroke="#333333" stroke-width="7.24"/>
<path d="M137.811 555.253V575.784" stroke="#333333" stroke-width="7.24"/>
<path d="M278.15 198.513C278.208 203.053 276.596 207.457 273.62 210.886C271.952 211.658 270.135 212.057 268.297 212.055C260.139 212.055 253.525 204.364 253.525 194.855C253.466 190.315 255.081 185.913 258.061 182.488C259.729 181.712 261.546 181.311 263.385 181.313C271.543 181.313 278.15 189.011 278.15 198.513Z" fill="#00BFFF"/>
<ellipse cx="263.394" cy="198.513" rx="14.7534" ry="17.2002" stroke="#333333" stroke-width="7.24"/>
</g>
<path fill-rule="evenodd" clip-rule="evenodd" d="M438.803 48.199C420.216 42.658 400.121 48.8594 387.888 63.9116C375.656 78.9638 373.695 99.9024 382.92 116.964C392.146 134.025 410.74 143.85 430.033 141.856C449.326 139.862 465.519 126.442 471.06 107.855C478.626 82.4738 464.184 55.7651 438.803 48.199ZM414.711 129.016C411.001 127.908 408.892 124.004 409.999 120.294C411.106 116.585 415.011 114.475 418.72 115.583C422.43 116.69 424.539 120.594 423.432 124.304C422.325 128.013 418.42 130.123 414.711 129.016ZM438.646 80.7037C438.739 80.4736 438.835 80.2374 438.936 79.9951H438.918C439.1 79.5667 439.295 79.1212 439.496 78.662C441.458 74.1809 443.989 68.4007 440.335 64.5937C436.689 60.8145 428.955 59.1248 424.855 63.0614C421.229 66.5114 420.784 73.2798 420.421 78.7969C420.321 80.3113 420.228 81.7314 420.077 82.9627C418.948 90.7871 418.341 98.6778 418.26 106.583C418.272 109.126 422.657 110.435 424.056 108.315C429.828 99.6208 434.716 90.371 438.646 80.7037Z" fill="#D7E8F0"/>
<path fill-rule="evenodd" clip-rule="evenodd" d="M471.98 323.172C465.176 330.09 463.21 340.427 466.999 349.36C470.788 358.294 479.586 364.065 489.289 363.982C498.993 363.899 507.691 357.978 511.326 348.98C514.962 339.983 512.818 329.682 505.896 322.881C496.449 313.599 481.267 313.729 471.98 323.172ZM502.069 352.745C500.711 354.127 498.49 354.145 497.108 352.787C495.727 351.429 495.708 349.209 497.066 347.827C497.945 346.934 499.233 346.577 500.446 346.891C501.659 347.205 502.613 348.142 502.947 349.349C503.282 350.557 502.947 351.851 502.069 352.745ZM487.214 332.336C486.784 331.778 486.357 331.223 485.934 330.67C485.692 330.361 485.449 330.028 485.2 329.687C483.795 327.761 482.209 325.588 479.575 326.339C477.05 327.066 474.494 330.088 475.275 332.826C475.95 335.236 478.842 337.019 481.197 338.472C481.842 338.869 482.447 339.242 482.955 339.597C486.15 341.93 489.499 344.047 492.978 345.932C494.104 346.525 495.709 344.89 495.104 343.776C492.928 339.761 490.028 335.993 487.214 332.336Z" fill="#00BFFF"/>
<path fill-rule="evenodd" clip-rule="evenodd" d="M566.03 131.032C572.703 122.823 571.458 110.759 563.249 104.085C555.04 97.4118 542.975 98.6562 536.301 106.865C529.627 115.073 530.871 127.138 539.079 133.812C543.021 137.018 548.076 138.526 553.13 138.005C558.185 137.483 562.825 134.975 566.03 131.032ZM539.885 109.78C540.515 109.004 541.512 108.622 542.501 108.78C543.489 108.938 544.317 109.611 544.675 110.546C545.032 111.48 544.864 112.535 544.233 113.311C543.602 114.088 542.605 114.469 541.617 114.312C540.629 114.154 539.8 113.481 539.443 112.546C539.085 111.611 539.254 110.557 539.885 109.78ZM553.206 124.874C553.599 125.295 553.99 125.714 554.377 126.133V126.096C554.582 126.316 554.789 126.553 555.001 126.795C556.269 128.246 557.703 129.887 559.774 129.088C561.73 128.349 563.535 125.751 562.711 123.637C561.994 121.767 559.566 120.57 557.588 119.595C557.042 119.326 556.53 119.074 556.098 118.829C553.372 117.209 550.541 115.772 547.625 114.529C546.704 114.141 545.529 115.558 546.098 116.4C548.135 119.436 550.705 122.192 553.206 124.874Z" fill="#00BFFF"/>
<path d="M375.616 257.333C382.375 268.84 382.066 277.034 380.309 290.316C379.607 295.373 385.052 298.795 389.467 296.251C428.476 273.842 464.887 291.563 511.4 280.577C528.479 276.568 549.774 268.258 564.37 254.898C569.213 247.707 571.8 239.234 571.801 230.563C571.801 194.225 522.138 164.724 460.89 164.724C421.638 164.724 387.153 176.837 367.44 195.085C367.44 195.085 367.44 195.085 367.385 195.139C362.382 202.631 359.633 210.819 359.633 219.365C359.603 232.404 369.299 246.54 375.616 257.333Z" fill="#D7E8F0"/>
<path fill-rule="evenodd" clip-rule="evenodd" d="M359.781 219.365V220.286C359.999 233.004 366.383 244.856 373.941 255.11C379.004 261.966 385.012 269.585 383.589 277.991C382.983 281.697 380.894 285.059 380.373 288.777C379.852 292.496 381.833 297.135 385.588 297.329C387.974 297.45 390.003 295.754 391.892 294.301C403.066 285.64 417.59 282.4 431.713 281.831C445.837 281.261 459.942 283.127 474.072 283.526C494.445 284.132 515.14 281.564 533.957 273.751C550.818 266.762 566.268 255.292 576.413 239.969C586.381 224.925 580.489 203.079 569.854 189.997C559.885 177.721 545.44 169.866 530.626 164.33C490.781 149.456 445.304 149.795 406.01 166.093C394.345 170.938 383.062 177.237 374.317 186.352C365.795 195.23 359.872 207.064 359.781 219.365H359.781Z" stroke="#333333" stroke-width="7.24"/>
<circle cx="523.267" cy="218.542" r="15.2985" fill="white"/>
<circle cx="473.791" cy="218.542" r="15.2985" fill="white"/>
<circle cx="423.345" cy="218.542" r="15.2985" fill="white"/>
</svg>
