<svg width="13" height="13" viewBox="0 0 13 13" fill="none" xmlns="http://www.w3.org/2000/svg">
<g clip-path="url(#clip0_6906_49008)">
<path d="M11.0508 1.88992C10.4548 1.2884 9.74507 0.81152 8.96293 0.487057C8.18079 0.162594 7.34189 -0.00296097 6.49512 4.00811e-05C2.94694 4.00811e-05 0.05525 2.89091 0.052 6.43992C0.052 7.5766 0.349375 8.68242 0.910813 9.66148L0 13L3.41575 12.1047C4.36069 12.6189 5.41932 12.8885 6.49512 12.8887H6.49837C10.0474 12.8887 12.9383 9.99785 12.9415 6.4456C12.9423 5.59901 12.7756 4.76063 12.451 3.97875C12.1263 3.19688 11.651 2.48697 11.0508 1.88992ZM6.49512 11.7984C5.53556 11.7987 4.59363 11.5405 3.76837 11.0509L3.57337 10.9339L1.547 11.4652L2.08812 9.48842L1.96137 9.28448C1.42497 8.43162 1.14128 7.44419 1.14319 6.43667C1.14319 3.49054 3.54575 1.08717 6.49837 1.08717C7.20179 1.0859 7.8985 1.22389 8.54833 1.49316C9.19816 1.76244 9.78827 2.15768 10.2846 2.6561C10.7827 3.15258 11.1776 3.74276 11.4464 4.3926C11.7153 5.04245 11.8528 5.73909 11.8511 6.44235C11.8479 9.39904 9.44531 11.7984 6.49512 11.7984ZM9.43231 7.78948C9.27225 7.70904 8.48169 7.31985 8.333 7.2646C8.18512 7.21179 8.07706 7.18417 7.97144 7.34504C7.86337 7.5051 7.55463 7.86992 7.462 7.97473C7.36938 8.08279 7.2735 8.09498 7.11262 8.01535C6.95256 7.9341 6.43338 7.7651 5.81913 7.21504C5.33975 6.78848 5.01881 6.26035 4.92294 6.10029C4.83031 5.93941 4.914 5.85329 4.99444 5.77285C5.06512 5.70135 5.1545 5.58435 5.23494 5.49173C5.31619 5.3991 5.343 5.33085 5.39581 5.2236C5.44862 5.11473 5.42344 5.0221 5.38363 4.94166C5.343 4.86123 5.02206 4.06741 4.88637 3.74729C4.75637 3.43123 4.62394 3.4751 4.52481 3.47104C4.43219 3.46535 4.32413 3.46535 4.21606 3.46535C4.13446 3.46738 4.05415 3.48626 3.98019 3.52079C3.90622 3.55533 3.8402 3.60478 3.78625 3.66604C3.63837 3.82692 3.22481 4.2161 3.22481 5.00991C3.22481 5.80373 3.80169 6.56667 3.88294 6.67473C3.96256 6.78279 5.01556 8.40698 6.63162 9.10573C7.0135 9.27229 7.31413 9.3706 7.54894 9.44535C7.93488 9.56885 8.28344 9.55017 8.56131 9.51035C8.87006 9.46323 9.51275 9.12035 9.64844 8.74417C9.78169 8.36717 9.78169 8.04542 9.74106 7.97798C9.70125 7.90973 9.59319 7.86992 9.43231 7.78948Z" fill="white"/>
</g>
<defs>
<clipPath id="clip0_6906_49008">
<rect width="13" height="13" fill="white"/>
</clipPath>
</defs>
</svg>
